<svg data-v-423bf9ae="" xmlns="http://www.w3.org/2000/svg" viewBox="0 0 531 90" class="iconLeft"><!----><!----><!----><g data-v-423bf9ae="" id="8020dbcb-42a6-4147-beaa-18368fef1e87" fill="white" transform="matrix(4.573170439180078,0,0,4.573170439180078,111.98615555414708,-2.789632874663532)"><path d="M4.31 13.94C6.23 13.94 7.45 12.84 7.45 11.40C7.45 10.00 6.48 9.45 5.39 8.95L4.03 8.36C3.29 8.02 2.34 7.64 2.34 6.65C2.34 5.70 3.15 5.11 4.37 5.11C5.33 5.11 6.08 5.47 6.66 6.02L7.13 5.47C6.51 4.84 5.53 4.37 4.37 4.37C2.70 4.37 1.48 5.33 1.48 6.71C1.48 8.05 2.60 8.68 3.49 9.04L4.86 9.63C5.82 10.07 6.61 10.37 6.61 11.47C6.61 12.50 5.74 13.20 4.31 13.20C3.22 13.20 2.23 12.71 1.54 11.97L1.02 12.56C1.79 13.38 2.93 13.94 4.31 13.94ZM9.37 13.78L10.16 13.78L10.16 8.46C10.57 7.60 10.93 7.18 11.48 7.18C12.08 7.18 12.39 7.69 12.39 8.71L12.39 13.78L13.08 13.78L13.08 8.46C13.48 7.60 13.85 7.18 14.42 7.18C15.01 7.18 15.30 7.69 15.30 8.71L15.30 13.78L16.10 13.78L16.10 8.62C16.10 7.20 15.55 6.47 14.63 6.47C13.89 6.47 13.45 6.93 12.99 7.73C12.82 6.87 12.39 6.47 11.68 6.47C10.92 6.47 10.50 6.92 10.14 7.60L10.09 7.60L10.02 6.64L9.37 6.64ZM20.36 13.96C21.35 13.96 22.36 13.37 23.13 12.73L23.17 12.73L23.24 13.78L23.91 13.78L23.91 9.27C23.91 7.67 23.11 6.47 21.29 6.47C20.10 6.47 19.12 7.08 18.63 7.50L18.97 8.11C19.46 7.67 20.22 7.17 21.17 7.17C22.62 7.17 23.09 8.19 23.10 9.28C19.50 9.62 18.05 10.37 18.05 12.00C18.05 13.30 19.14 13.96 20.36 13.96ZM20.54 13.29C19.68 13.29 18.84 12.89 18.84 11.94C18.84 10.85 19.87 10.18 23.10 9.87L23.10 12.05C22.22 12.87 21.36 13.29 20.54 13.29ZM27.40 13.78L28.21 13.78L28.21 9.39C29.11 7.81 30.10 7.22 31.18 7.22C31.72 7.22 31.96 7.28 32.45 7.49L32.66 6.76C32.24 6.52 31.78 6.47 31.32 6.47C30.00 6.47 28.92 7.25 28.20 8.40L28.15 8.40L28.08 6.64L27.40 6.64ZM39.13 13.96C39.82 13.96 40.61 13.76 41.23 13.51L41.02 12.91C40.52 13.13 39.97 13.26 39.28 13.26C37.86 13.26 37.46 12.47 37.46 11.12L37.46 7.32L40.96 7.32L40.96 6.64L37.46 6.64L37.46 3.89L36.68 4.54L36.68 6.64L34.68 6.64L34.68 7.32L36.65 7.32L36.65 11.09C36.65 12.80 37.24 13.96 39.13 13.96ZM46.69 13.94C47.89 13.94 48.82 13.48 49.39 12.89L49.39 9.14L46.58 9.14L46.58 9.84L48.59 9.84L48.59 12.56C48.19 12.95 47.50 13.20 46.75 13.20C44.80 13.20 43.67 11.61 43.67 9.13C43.67 6.66 44.88 5.11 46.82 5.11C47.75 5.11 48.34 5.50 48.82 6.01L49.29 5.46C48.80 4.94 48.02 4.37 46.82 4.37C44.42 4.37 42.78 6.19 42.78 9.13C42.78 12.11 44.39 13.94 46.69 13.94ZM53.96 13.96C54.95 13.96 55.96 13.37 56.73 12.73L56.77 12.73L56.84 13.78L57.51 13.78L57.51 9.27C57.51 7.67 56.71 6.47 54.89 6.47C53.70 6.47 52.72 7.08 52.23 7.50L52.57 8.11C53.06 7.67 53.82 7.17 54.77 7.17C56.22 7.17 56.69 8.19 56.70 9.28C53.10 9.62 51.65 10.37 51.65 12.00C51.65 13.30 52.74 13.96 53.96 13.96ZM54.14 13.29C53.28 13.29 52.44 12.89 52.44 11.94C52.44 10.85 53.47 10.18 56.70 9.87L56.70 12.05C55.82 12.87 54.96 13.29 54.14 13.29ZM61.00 13.78L61.81 13.78L61.81 9.39C62.71 7.81 63.70 7.22 64.78 7.22C65.32 7.22 65.56 7.28 66.05 7.49L66.26 6.76C65.84 6.52 65.38 6.47 64.92 6.47C63.60 6.47 62.52 7.25 61.80 8.40L61.75 8.40L61.68 6.64L61.00 6.64ZM70.76 13.96C71.75 13.96 72.76 13.37 73.53 12.73L73.57 12.73L73.64 13.78L74.31 13.78L74.31 9.27C74.31 7.67 73.51 6.47 71.69 6.47C70.50 6.47 69.52 7.08 69.03 7.50L69.37 8.11C69.86 7.67 70.62 7.17 71.57 7.17C73.02 7.17 73.49 8.19 73.50 9.28C69.90 9.62 68.45 10.37 68.45 12.00C68.45 13.30 69.54 13.96 70.76 13.96ZM70.94 13.29C70.08 13.29 69.24 12.89 69.24 11.94C69.24 10.85 70.27 10.18 73.50 9.87L73.50 12.05C72.62 12.87 71.76 13.29 70.94 13.29ZM79.58 17.01C81.45 17.01 82.59 15.90 82.59 13.78L82.59 6.64L81.93 6.64L81.84 7.45L81.82 7.45C81.19 6.86 80.47 6.47 79.66 6.47C77.98 6.47 76.51 7.87 76.51 10.12C76.51 12.45 77.70 13.75 79.45 13.75C80.36 13.75 81.24 13.20 81.80 12.57L81.79 13.69C81.77 15.78 80.98 16.34 79.58 16.34C78.85 16.34 78.05 16.13 77.34 15.09L76.83 15.53C77.74 16.72 78.65 17.01 79.58 17.01ZM79.60 13.06C78.19 13.06 77.35 11.89 77.35 10.11C77.35 8.43 78.43 7.17 79.74 7.17C80.42 7.17 81.07 7.45 81.79 8.16L81.79 11.83C81.07 12.61 80.33 13.06 79.60 13.06ZM88.62 13.96C89.78 13.96 90.57 13.54 91.20 13.12L90.89 12.53C90.24 12.98 89.57 13.26 88.70 13.26C87.05 13.26 85.90 12.07 85.89 10.36L91.45 10.36C91.48 10.18 91.48 9.98 91.48 9.79C91.48 7.74 90.31 6.47 88.44 6.47C86.70 6.47 85.04 7.91 85.04 10.22C85.04 12.56 86.66 13.96 88.62 13.96ZM85.88 9.73C86.06 8.12 87.21 7.13 88.44 7.13C89.82 7.13 90.71 8.04 90.71 9.73Z"></path></g><!----><g data-v-423bf9ae="" id="8133ff7c-10cc-4532-8508-55edd4ef483c" transform="matrix(3.02033690133878,0,0,3.02033690133878,0.6746095785795205,-6.44676146975133)" stroke="none" fill="white"><circle cx="25.044" cy="25.043" r="6.956"></circle><circle cx="6.956" cy="25.043" r="6.956"></circle><path d="M.172 2.201H13.74v13.568H.172zM18.432 2.201H32v13.568H18.432z"></path></g><!----></svg>